<svg id="Group_6016" data-name="Group 6016" xmlns="http://www.w3.org/2000/svg" xmlns:xlink="http://www.w3.org/1999/xlink" width="800" height="800" viewBox="0 0 800 800">
  <defs>
    <clipPath id="clip-path">
      <rect id="Rectangle_2608" data-name="Rectangle 2608" width="399.203" height="459.25" transform="translate(0 0)" fill="#fff" stroke="#707070" stroke-width="1"/>
    </clipPath>
    <clipPath id="clip-path-2">
      <path id="Path_33101" data-name="Path 33101" d="M0,0H399.974V184.313L0,399.974Z" fill="#fff" stroke="#707070" stroke-width="1"/>
    </clipPath>
    <linearGradient id="linear-gradient" x1="0.763" y1="0.091" x2="0.555" y2="0.419" gradientUnits="objectBoundingBox">
      <stop offset="0" stop-color="#3faeff"/>
      <stop offset="1" stop-color="#216bff"/>
    </linearGradient>
    <clipPath id="clip-path-3">
      <path id="Path_33102" data-name="Path 33102" d="M0,0,399.974,217.473v182.5H0Z" fill="#5d4545" stroke="#707070" stroke-width="1"/>
    </clipPath>
    <linearGradient id="linear-gradient-2" x1="0.5" y1="0.52" x2="0.5" y2="1" gradientUnits="objectBoundingBox">
      <stop offset="0" stop-color="#1f6bff"/>
      <stop offset="1" stop-color="#40b5ff"/>
    </linearGradient>
    <clipPath id="clip-path-4">
      <rect id="Rectangle_2609" data-name="Rectangle 2609" width="400.315" height="459.25" transform="translate(0 0)" fill="#fff" stroke="#707070" stroke-width="1"/>
    </clipPath>
    <linearGradient id="linear-gradient-3" x1="0.421" y1="0.5" x2="0" y2="0.515" gradientUnits="objectBoundingBox">
      <stop offset="0" stop-color="#216bff"/>
      <stop offset="1" stop-color="#40b5ff"/>
    </linearGradient>
    <clipPath id="clip-path-5">
      <path id="Path_33104" data-name="Path 33104" d="M399.974,0H0V184.313L399.974,399.974Z" fill="#fff" stroke="#707070" stroke-width="1"/>
    </clipPath>
    <clipPath id="clip-path-6">
      <path id="Path_33105" data-name="Path 33105" d="M399.974,0,0,217.473v182.5H399.974Z" fill="#5d4545" stroke="#707070" stroke-width="1"/>
    </clipPath>
  </defs>
  <g id="Mask_Group_3" data-name="Mask Group 3" transform="translate(400.368 168.401)" clip-path="url(#clip-path)">
    <path id="Path_33106" data-name="Path 33106" d="M399.974,0c220.9,0,399.974,179.074,399.974,399.974S620.873,799.947,399.974,799.947,0,620.873,0,399.974,179.074,0,399.974,0Z" transform="translate(-400.315 -168.375)" fill="#fff"/>
  </g>
  <g id="Mask_Group_1" data-name="Mask Group 1" transform="translate(400.026)" clip-path="url(#clip-path-2)">
    <path id="Path_33100" data-name="Path 33100" d="M399.974,0c220.9,0,399.974,179.074,399.974,399.974S620.873,799.947,399.974,799.947,0,620.873,0,399.974,179.074,0,399.974,0Z" transform="translate(-399.974)" fill="url(#linear-gradient)"/>
  </g>
  <g id="Mask_Group_2" data-name="Mask Group 2" transform="translate(400.026 400.026)" clip-path="url(#clip-path-3)">
    <path id="Path_33107" data-name="Path 33107" d="M399.974,0c220.9,0,399.974,179.074,399.974,399.974S620.873,799.947,399.974,799.947,0,620.873,0,399.974,179.074,0,399.974,0Z" transform="translate(-399.974 -399.974)" fill="url(#linear-gradient-2)"/>
  </g>
  <g id="Mask_Group_4" data-name="Mask Group 4" transform="translate(0 168.401)" clip-path="url(#clip-path-4)">
    <path id="Path_33108" data-name="Path 33108" d="M399.974,0c220.9,0,399.974,179.074,399.974,399.974S620.873,799.947,399.974,799.947,0,620.873,0,399.974,179.074,0,399.974,0Z" transform="translate(0 -168.375)" fill="url(#linear-gradient-3)"/>
  </g>
  <g id="Mask_Group_5" data-name="Mask Group 5" clip-path="url(#clip-path-5)">
    <path id="Path_33103" data-name="Path 33103" d="M399.974,0C179.074,0,0,179.074,0,399.974S179.074,799.947,399.974,799.947,799.947,620.873,799.947,399.974,620.873,0,399.974,0Z" fill="#fff"/>
  </g>
  <g id="Mask_Group_6" data-name="Mask Group 6" transform="translate(0 400.026)" clip-path="url(#clip-path-6)">
    <circle id="Ellipse_354" data-name="Ellipse 354" cx="399.759" cy="399.759" r="399.759" transform="translate(0 -399.508)" fill="#fff"/>
  </g>
  <text id="_500_Points" data-name="500 Points" transform="translate(529.564 201.235) rotate(-56)" fill="#fff" font-size="35" font-family="Poppins-SemiBold, Poppins" font-weight="600"><tspan x="-92" y="0">500 Points</tspan></text>
  <text id="Better_Luck_next_time" data-name="Better Luck
next time" transform="matrix(-0.999, -0.035, 0.035, -0.999, 172.679, 407.408)" fill="#fff" font-size="30" font-family="Poppins-SemiBold, Poppins" font-weight="600"><tspan x="-84" y="0">Better Luck</tspan><tspan x="-75" y="36">Next Time</tspan></text>
  <text id="_200_Points" data-name="200 Points" transform="matrix(0.53, 0.848, -0.848, 0.53, 501.031, 601.567)" fill="#fff" font-size="35" font-family="Poppins-SemiBold, Poppins" font-weight="600"><tspan x="-91" y="0">200 Points</tspan></text>
  <text id="_10_OFF" data-name="10% OFF" transform="translate(616.144 422.556)" font-size="35" font-family="Poppins-SemiBold, Poppins" font-weight="600"><tspan x="-68" y="0">10% OFF</tspan></text>
  <text id="_30_OFF" data-name="30% OFF" transform="matrix(-0.469, -0.883, 0.883, -0.469, 303.227, 218.994)" font-size="35" font-family="Poppins-SemiBold, Poppins" font-weight="600"><tspan x="-72" y="0">30% OFF</tspan></text>
  <text id="_300_Points" data-name="300 Points" transform="translate(271.098 595.241) rotate(120)" font-size="35" font-family="Poppins-SemiBold, Poppins" font-weight="600"><tspan x="-91" y="0">300 Points</tspan></text>
</svg>
